<svg xmlns="http://www.w3.org/2000/svg" viewBox="0 0 1824.62 1824.62"><defs><style>.cls-1{fill:#068695;}.cls-2{fill:#212529;}.cls-3{fill:#09c0d5;}</style></defs><title>logo-black</title><g id="Calque_2" data-name="Calque 2"><g id="Logo"><path class="cls-1" d="M1752.89,557.17a915.83,915.83,0,0,0-196.43-290.88c-83.75-83.75-181.29-148.6-289.94-194.55A906.72,906.72,0,0,0,911.37,0,932.32,932.32,0,0,0,755.73,13V237.87a712.94,712.94,0,0,1,155.64-17c190.63,0,364.25,77.71,489.45,202.91s202.91,297.88,202.91,488.5a688.33,688.33,0,0,1-40.58,233.47c-96,266.71-351.49,458-650.84,458a689.18,689.18,0,0,1-156.58-18.44v226a917,917,0,0,0,156.58,13.38c123.11,0,242.61-24.13,355.15-71.73a911,911,0,0,0,557.16-840.58C1824.62,789.2,1800.49,669.71,1752.89,557.17Z"/><path class="cls-2" d="M1233.15,591.47c-82.2-82.19-195.68-133.1-320.84-133.1a451.14,451.14,0,0,0-233.47,64.78C547.15,602.46,458.77,746.68,458.38,911.21h0v792.68l.43.25a912.88,912.88,0,0,0,220,90.35v-232.4l.11-166.9h-.11V1145.78l.42-.42h-.15l.15-233v-1.1h0c.6-128,104.9-232,233-232a233.31,233.31,0,0,1,233,233c0,128.51-104.54,233-233,233H755.73v220.9H912.31c165,0,309.68-88.48,389.17-220.48a451.23,451.23,0,0,0,64.78-233.47C1366.26,787.16,1315.35,673.67,1233.15,591.47Z"/><path class="cls-3" d="M380.68,1145.78h-120C235,1071.2,220.9,993.38,220.9,912.31c0-299.35,191.23-555.68,457.94-651.65V30.13A913.64,913.64,0,0,0,30,1145.36l.12.42a913.1,913.1,0,0,0,90.59,220.48h260Z"/></g></g></svg>