<svg xmlns="http://www.w3.org/2000/svg" viewBox="0 0 1855.84 404.49"><defs><style>.cls-1{fill:#068695;}.cls-2{fill:#212529;}.cls-3{fill:#09c0d5;}</style></defs><title>logo-black-long</title><g id="Calque_2" data-name="Calque 2"><g id="Logo"><path class="cls-1" d="M388.59,123.51A203.12,203.12,0,0,0,345,59,202.58,202.58,0,0,0,202,0a206.69,206.69,0,0,0-34.51,2.88V52.73A157.92,157.92,0,0,1,202,49,153.3,153.3,0,0,1,346.53,254c-21.28,59.13-77.92,101.52-144.28,101.52a152.89,152.89,0,0,1-34.72-4.09v50.09a203.5,203.5,0,0,0,34.72,3,202.35,202.35,0,0,0,186.34-281Z"/><path class="cls-2" d="M273.37,131.12A100.61,100.61,0,0,0,101.62,202h0V377.73l.1,0a201.77,201.77,0,0,0,48.78,20V346.29l0-37h0V254l.09-.09h0l0-51.66V202h0a51.66,51.66,0,1,1,51.66,51.91H167.53v49h34.72a100.59,100.59,0,0,0,71.12-171.76Z"/><path class="cls-3" d="M84.39,254H57.8A157.58,157.58,0,0,1,49,202.25,153.78,153.78,0,0,1,150.49,57.78V6.68A202.52,202.52,0,0,0,6.66,253.91a.29.29,0,0,0,0,.09,202,202,0,0,0,9.22,27,205.47,205.47,0,0,0,10.86,21.9H84.39Z"/></g><g id="Police"><path class="cls-2" d="M540,129.61a4.43,4.43,0,0,1,1.21-3.12,4.28,4.28,0,0,1,3.31-1.3h29.77a4.7,4.7,0,0,1,3.12,1.2,4.35,4.35,0,0,1,1.51,3.22V239H634.2a4.46,4.46,0,0,1,3.12,1.21,4.31,4.31,0,0,1,1.31,3.32V270a4.81,4.81,0,0,1-1.16,3.12,4.28,4.28,0,0,1-3.27,1.51H544.39q-4.42,0-4.42-4.43Z"/><path class="cls-2" d="M650.7,200.11a75.91,75.91,0,0,1,2.72-20.46,77,77,0,0,1,7.74-18.41,78.56,78.56,0,0,1,12-15.64,75.19,75.19,0,0,1,15.55-12,78.93,78.93,0,0,1,18.37-7.74,76.87,76.87,0,0,1,40.9,0,78.77,78.77,0,0,1,18.42,7.74,76.56,76.56,0,0,1,15.6,12,75.69,75.69,0,0,1,12,15.64,80,80,0,0,1,7.75,18.41,77.25,77.25,0,0,1,0,40.93,77.9,77.9,0,0,1-7.75,18.3,75.33,75.33,0,0,1-12,15.49,78.75,78.75,0,0,1-15.6,12,77,77,0,0,1-77.69,0,77.3,77.3,0,0,1-15.55-12,78.2,78.2,0,0,1-12-15.49,75,75,0,0,1-7.74-18.3A76,76,0,0,1,650.7,200.11Zm38.92-.1a42.78,42.78,0,0,0,2.81,15.59,38.52,38.52,0,0,0,7.89,12.62,36.61,36.61,0,0,0,12,8.45,39.61,39.61,0,0,0,30.58,0A36.55,36.55,0,0,0,755,228.22a38.34,38.34,0,0,0,7.88-12.62,44.51,44.51,0,0,0,0-31.13A38.89,38.89,0,0,0,755,171.75a37.47,37.47,0,0,0-54.64,0,39.08,39.08,0,0,0-7.89,12.72A43,43,0,0,0,689.62,200Z"/><path class="cls-2" d="M825.59,129.61a4.43,4.43,0,0,1,1.21-3.12,4.29,4.29,0,0,1,3.32-1.3h29.77a4.7,4.7,0,0,1,3.12,1.2,4.34,4.34,0,0,1,1.5,3.22V239h55.32a4.48,4.48,0,0,1,3.12,1.21,4.3,4.3,0,0,1,1.3,3.32V270a4.8,4.8,0,0,1-1.15,3.12,4.28,4.28,0,0,1-3.27,1.51H830q-4.42,0-4.43-4.43Z"/><path class="cls-2" d="M945.77,129.91a4.91,4.91,0,0,1,1.11-3.37,4.21,4.21,0,0,1,3.32-1.25h64.26a43.55,43.55,0,0,1,13.08,1.91,44.21,44.21,0,0,1,11.26,5.28,45.94,45.94,0,0,1,9.26,8,52.7,52.7,0,0,1,7,10.11,51.41,51.41,0,0,1,4.37,11.42,49.18,49.18,0,0,1,1.51,12.11,49.71,49.71,0,0,1-3.27,17.71,48.67,48.67,0,0,1-9.3,15.38,47.44,47.44,0,0,1-14.49,10.92,42.65,42.65,0,0,1-18.7,4.27H984.69v47.87q0,4.33-4.62,4.33H950.2a4.73,4.73,0,0,1-3.22-1.06,4.13,4.13,0,0,1-1.21-3.27ZM1021.5,174a18.23,18.23,0,0,0-1-6,16.86,16.86,0,0,0-3.07-5.38,16.14,16.14,0,0,0-4.88-3.87,13.65,13.65,0,0,0-6.48-1.51H984.69v33.59H1006a14.41,14.41,0,0,0,6.53-1.46,15.2,15.2,0,0,0,4.88-3.77,16.74,16.74,0,0,0,3-5.33A18.84,18.84,0,0,0,1021.5,174Z"/><path class="cls-2" d="M1083,129.91a4.91,4.91,0,0,1,1.11-3.37,4.21,4.21,0,0,1,3.32-1.25h65a48.89,48.89,0,0,1,19.41,3.87,50.55,50.55,0,0,1,15.79,10.51,48.93,48.93,0,0,1,10.61,15.54,47,47,0,0,1,3.87,18.95,45,45,0,0,1-1.86,13,48.57,48.57,0,0,1-5.18,11.56,49.07,49.07,0,0,1-7.89,9.76,51.47,51.47,0,0,1-10,7.49l25.84,48.68c.47.94,1.08,2,1.81,3.32a6.86,6.86,0,0,1,1.11,3.32,3,3,0,0,1-1,2.46,4.44,4.44,0,0,1-2.87.86h-34.5a5,5,0,0,1-3.06-1,4.49,4.49,0,0,1-1.76-2.71l-24.44-46h-16.3v45.36q0,4.33-4.62,4.33h-29.87a4.73,4.73,0,0,1-3.22-1.06,4.13,4.13,0,0,1-1.21-3.27Zm78.75,44.66a17.4,17.4,0,0,0-1.11-6,19.48,19.48,0,0,0-3.11-5.53,18.48,18.48,0,0,0-4.83-4.22,16.63,16.63,0,0,0-6.24-2.22l-5.28-.35c-1.64-.1-3.43-.15-5.38-.15h-13.88V193h18.51c1.21,0,2.28,0,3.22-.1s2-.17,3.12-.3a16,16,0,0,0,6.33-2.06,16.55,16.55,0,0,0,4.73-4.13,18.41,18.41,0,0,0,2.92-5.53A20.32,20.32,0,0,0,1161.7,174.57Z"/><path class="cls-2" d="M1217.32,200.11a76.35,76.35,0,0,1,10.46-38.87,78.19,78.19,0,0,1,12-15.64,75.13,75.13,0,0,1,15.54-12,79.3,79.3,0,0,1,18.37-7.74,76.91,76.91,0,0,1,40.91,0,78.77,78.77,0,0,1,18.42,7.74,76.3,76.3,0,0,1,27.62,27.66,79.55,79.55,0,0,1,7.75,18.41,77,77,0,0,1,0,40.93,77.48,77.48,0,0,1-7.75,18.3,75.63,75.63,0,0,1-12,15.49,78.75,78.75,0,0,1-15.6,12,77,77,0,0,1-77.7,0,78.07,78.07,0,0,1-27.57-27.51,75.07,75.07,0,0,1-7.75-18.3A76.38,76.38,0,0,1,1217.32,200.11Zm38.92-.1a42.57,42.57,0,0,0,2.81,15.59,38.34,38.34,0,0,0,7.88,12.62,36.76,36.76,0,0,0,12,8.45,37.18,37.18,0,0,0,15.26,3.07,37.6,37.6,0,0,0,15.32-3.07,36.51,36.51,0,0,0,12-8.45,38.52,38.52,0,0,0,7.89-12.62,44.51,44.51,0,0,0,0-31.13,39.08,39.08,0,0,0-7.89-12.72,36.92,36.92,0,0,0-12-8.55,37.3,37.3,0,0,0-15.32-3.12,36.62,36.62,0,0,0-27.27,11.67,38.89,38.89,0,0,0-7.88,12.72A42.77,42.77,0,0,0,1256.24,200Z"/><path class="cls-2" d="M1408.3,226.36q1.71,1.41,4.38,3.77a57.23,57.23,0,0,0,6.08,4.68,50.74,50.74,0,0,0,10.16,5.33,29.54,29.54,0,0,0,10.56,1.91,27.58,27.58,0,0,0,8.6-1.15,14.55,14.55,0,0,0,5.48-3.07,10.86,10.86,0,0,0,2.86-4.42,16.45,16.45,0,0,0,.86-5.33,7.86,7.86,0,0,0-2.36-5.57,24.87,24.87,0,0,0-5.79-4.38,50.1,50.1,0,0,0-7.14-3.26q-3.72-1.37-6.43-2.26a146.28,146.28,0,0,1-21.12-9.1,64.87,64.87,0,0,1-15.09-10.85,40.58,40.58,0,0,1-9-13.16,41,41,0,0,1-3-16,37.87,37.87,0,0,1,3.77-17,37.42,37.42,0,0,1,10.76-13.07,51.47,51.47,0,0,1,16.85-8.39,76.55,76.55,0,0,1,22-3,73.6,73.6,0,0,1,17.55,2.06,67,67,0,0,1,16.54,6.59q3.42,2,6.49,4.17a67.28,67.28,0,0,1,5.38,4.18,25.6,25.6,0,0,1,3.67,3.82,5.56,5.56,0,0,1,1.36,3.11,4.63,4.63,0,0,1-.66,2.42,15.55,15.55,0,0,1-2,2.51l-15.39,16.4a4.93,4.93,0,0,1-3.42,1.71,4.35,4.35,0,0,1-2.56-.81c-.77-.53-1.63-1.21-2.57-2l-.9-.81c-1.34-1.13-2.83-2.31-4.48-3.52a39.94,39.94,0,0,0-5.28-3.26,35.6,35.6,0,0,0-5.93-2.42,21.75,21.75,0,0,0-6.34-1,33.28,33.28,0,0,0-6.23.55,17.5,17.5,0,0,0-5.13,1.76,9.65,9.65,0,0,0-3.52,3.17,9.24,9.24,0,0,0,.1,9.65,14.07,14.07,0,0,0,4.22,3.83,38.85,38.85,0,0,0,7,3.31q4.17,1.56,9.71,3.37,10.65,3.53,19.66,7.4a66.22,66.22,0,0,1,15.54,9.15,37.87,37.87,0,0,1,10.21,12.62q3.66,7.34,3.67,17.8a44,44,0,0,1-4.53,20.06,45.71,45.71,0,0,1-12.42,15.34,58,58,0,0,1-18.55,9.81,73.82,73.82,0,0,1-22.93,3.47,64.85,64.85,0,0,1-22.73-4.14,86.77,86.77,0,0,1-20.82-11.09,53.83,53.83,0,0,1-6.79-5.75q-2.76-2.83-4.38-4.54l-.3-.31a.53.53,0,0,0-.2-.25.65.65,0,0,1-.2-.15.54.54,0,0,0-.2-.25.55.55,0,0,1-.2-.15q-2.33-2.52-2.32-4,0-1.71,2.32-3.83l17.4-16.59A6.49,6.49,0,0,1,1404,224a3.75,3.75,0,0,1,1.91.6A19,19,0,0,1,1408.3,226.36Z"/><path class="cls-1" d="M1518.93,245.67a4.58,4.58,0,0,1,1.11-3.22,4.32,4.32,0,0,1,3.33-1.2H1550a4.91,4.91,0,0,1,3.18,1.2,4,4,0,0,1,1.46,3.22V270a4.89,4.89,0,0,1-1.16,3.22,4.24,4.24,0,0,1-3.48,1.41h-26.62c-3,0-4.44-1.55-4.44-4.63Z"/><path class="cls-1" d="M1677.13,167.43a43.7,43.7,0,0,0-11-5.64,38,38,0,0,0-12.47-2,36.31,36.31,0,0,0-27.2,11.77,39.91,39.91,0,0,0-7.8,12.72,44.24,44.24,0,0,0,0,31,39.43,39.43,0,0,0,7.8,12.62,36.27,36.27,0,0,0,11.92,8.5,36.82,36.82,0,0,0,15.28,3.12,47.94,47.94,0,0,0,7-.51c2.32-.33,4.78-.77,7.4-1.3V211.38a4.6,4.6,0,0,1,1.1-3.17,4.18,4.18,0,0,1,3.32-1.26h27.36a5.63,5.63,0,0,1,3.21,1.21,3.75,3.75,0,0,1,1.71,3.22v48.67q0,2.71-2.91,4.43a54.88,54.88,0,0,1-10.46,5.53,85.29,85.29,0,0,1-12,3.82,105.54,105.54,0,0,1-12.62,2.26,104.46,104.46,0,0,1-12.42.76,76.18,76.18,0,0,1-38.82-10.46A77.93,77.93,0,0,1,1588,238.88a75,75,0,0,1-7.74-18.3,77.2,77.2,0,0,1,7.74-59.34,78.15,78.15,0,0,1,12-15.64,75.13,75.13,0,0,1,15.54-12,78.78,78.78,0,0,1,18.35-7.74,77.89,77.89,0,0,1,43.25.6,78.09,78.09,0,0,1,20.16,9.71,7,7,0,0,1,2.62,2.66,3.62,3.62,0,0,1-.41,3.78l-16.29,23.53a7.13,7.13,0,0,1-2.61,2.16C1679.77,168.65,1678.6,168.37,1677.13,167.43Z"/><path class="cls-1" d="M1828.18,167.43a43.63,43.63,0,0,0-11-5.64,38,38,0,0,0-12.47-2,36.26,36.26,0,0,0-27.2,11.77,39.91,39.91,0,0,0-7.8,12.72,44.24,44.24,0,0,0,0,31,39.43,39.43,0,0,0,7.8,12.62,36.33,36.33,0,0,0,11.91,8.5,36.86,36.86,0,0,0,15.29,3.12,47.94,47.94,0,0,0,7-.51c2.31-.33,4.78-.77,7.39-1.3V211.38a4.61,4.61,0,0,1,1.11-3.17,4.18,4.18,0,0,1,3.32-1.26h27.35a5.63,5.63,0,0,1,3.22,1.21,3.75,3.75,0,0,1,1.71,3.22v48.67q0,2.71-2.91,4.43a55.18,55.18,0,0,1-10.46,5.53,86.13,86.13,0,0,1-12,3.82,105.9,105.9,0,0,1-12.62,2.26,104.46,104.46,0,0,1-12.42.76,76.25,76.25,0,0,1-38.83-10.46,78,78,0,0,1-27.55-27.51,74.69,74.69,0,0,1-7.75-18.3,77.12,77.12,0,0,1,7.75-59.34,77.78,77.78,0,0,1,12-15.64,75.07,75.07,0,0,1,15.53-12,79,79,0,0,1,18.36-7.74,77.85,77.85,0,0,1,43.24.6,78,78,0,0,1,20.17,9.71,6.87,6.87,0,0,1,2.61,2.66,3.59,3.59,0,0,1-.4,3.78l-16.29,23.53a7.15,7.15,0,0,1-2.62,2.16C1830.83,168.65,1829.66,168.37,1828.18,167.43Z"/></g></g></svg>